<svg width="512" height="512" viewBox="0 0 512 512" fill="none" xmlns="http://www.w3.org/2000/svg">
  <defs>
    <linearGradient id="gradient" x1="0%" y1="0%" x2="100%" y2="100%">
      <stop offset="0%" style="stop-color:#0078d4;stop-opacity:1" />
      <stop offset="100%" style="stop-color:#40e0d0;stop-opacity:1" />
    </linearGradient>
    <filter id="glow">
      <feGaussianBlur stdDeviation="8" result="coloredBlur"/>
      <feMerge> 
        <feMergeNode in="coloredBlur"/>
        <feMergeNode in="SourceGraphic"/>
      </feMerge>
    </filter>
    <filter id="shadow">
      <feDropShadow dx="0" dy="4" stdDeviation="4" flood-color="#000000" flood-opacity="0.3"/>
    </filter>
  </defs>
  
  <!-- Background circle with shadow -->
  <circle cx="256" cy="256" r="240" fill="#182831" stroke="url(#gradient)" stroke-width="32" filter="url(#shadow)"/>
  
  <!-- Lock body with shadow -->
  <rect x="176" y="224" width="160" height="128" rx="16" fill="url(#gradient)" filter="url(#glow)" />
  
  <!-- Lock shackle -->
  <path d="M208 224 V176 C208 139.49 237.49 110 274 110 C310.51 110 340 139.49 340 176 V224" 
        stroke="url(#gradient)" stroke-width="32" fill="none" stroke-linecap="round" filter="url(#glow)"/>
  
  <!-- Quantum dots (representing post-quantum security) -->
  <circle cx="224" cy="288" r="12" fill="#40e0d0" opacity="0.9"/>
  <circle cx="256" cy="288" r="12" fill="#ffffff" opacity="0.9"/>
  <circle cx="288" cy="288" r="12" fill="#40e0d0" opacity="0.9"/>
  
  <!-- Security indicator -->
  <circle cx="256" cy="320" r="8" fill="white"/>
  
  <!-- Quantum wave patterns -->
  <path d="M80 400 Q120 380 160 400 T240 400" stroke="#40e0d0" stroke-width="6" fill="none" opacity="0.3"/>
  <path d="M272 400 Q312 380 352 400 T432 400" stroke="#0078d4" stroke-width="6" fill="none" opacity="0.3"/>
  <path d="M80 112 Q120 92 160 112 T240 112" stroke="#40e0d0" stroke-width="6" fill="none" opacity="0.3"/>
  <path d="M272 112 Q312 92 352 112 T432 112" stroke="#0078d4" stroke-width="6" fill="none" opacity="0.3"/>
  
  <!-- Corner quantum elements -->
  <circle cx="96" cy="96" r="4" fill="#40e0d0" opacity="0.6"/>
  <circle cx="416" cy="96" r="4" fill="#0078d4" opacity="0.6"/>
  <circle cx="96" cy="416" r="4" fill="#0078d4" opacity="0.6"/>
  <circle cx="416" cy="416" r="4" fill="#40e0d0" opacity="0.6"/>
  
  <!-- Mesh network indicators -->
  <g opacity="0.2">
    <line x1="96" y1="96" x2="256" y2="110" stroke="#40e0d0" stroke-width="2"/>
    <line x1="416" y1="96" x2="256" y2="110" stroke="#0078d4" stroke-width="2"/>
    <line x1="96" y1="416" x2="256" y2="402" stroke="#0078d4" stroke-width="2"/>
    <line x1="416" y1="416" x2="256" y2="402" stroke="#40e0d0" stroke-width="2"/>
  </g>
</svg>